<?xml version="1.0" encoding="utf-8"?>
<!-- Generator: Adobe Illustrator 24.0.1, SVG Export Plug-In . SVG Version: 6.00 Build 0)  -->
<svg version="1.1" id="Layer_1" xmlns="http://www.w3.org/2000/svg" xmlns:xlink="http://www.w3.org/1999/xlink" x="0px" y="0px"
	 viewBox="0 0 22.8 20.5" style="enable-background:new 0 0 22.8 20.5;" xml:space="preserve">
<style type="text/css">
	.st0{fill:#818181;}
</style>
<path class="st0" d="M19.6,11.9c-0.1-0.3-0.4-0.5-0.7-0.4c0,0,0,0,0,0l-1.6,0.4c-0.3,0.1-0.7,0-1-0.1l-1.6-0.9
	c-0.2-0.1-0.2-0.2-0.2-0.4c0-0.1,0.1-0.2,0.2-0.2l1.6-0.9c0.3-0.2,0.7-0.2,1-0.1l1.6,0.4c0.3,0.1,0.6-0.1,0.7-0.4c0,0,0,0,0,0
	L20,7.6C20.1,7.3,19.9,7,19.6,7c0,0,0,0,0,0l-0.8-0.2c-0.3-0.1-0.5-0.4-0.4-0.7c0,0,0,0,0,0l0.2-0.8c0.1-0.3-0.1-0.6-0.4-0.7
	c0,0,0,0,0,0l-1.6-0.4C16.3,4,16,4.2,15.9,4.5c0,0,0,0,0,0l-0.4,1.6c-0.1,0.3-0.3,0.6-0.6,0.8l-1.6,0.9c-0.3,0.2-0.5,0-0.5-0.3V5.7
	c0-0.4,0.2-0.7,0.4-0.9l1.2-1.2c0.2-0.2,0.2-0.6,0-0.8l-1.2-1.2c-0.2-0.2-0.6-0.2-0.8,0l-0.6,0.6c-0.2,0.2-0.6,0.2-0.8,0l-0.6-0.6
	c-0.2-0.2-0.6-0.2-0.8,0L8.4,2.8C8.2,3,8.2,3.4,8.4,3.6l1.2,1.2C9.9,5,10,5.4,10,5.7v1.9C10,7.9,9.8,8,9.5,7.9L7.9,7
	C7.6,6.8,7.4,6.5,7.3,6.1L6.9,4.5C6.8,4.2,6.5,4.1,6.2,4.1c0,0,0,0,0,0L4.6,4.6C4.3,4.6,4.1,4.9,4.2,5.2c0,0,0,0,0,0l0.2,0.8
	C4.5,6.4,4.3,6.7,4,6.8c0,0,0,0,0,0L3.2,7C2.9,7.1,2.7,7.4,2.8,7.7c0,0,0,0,0,0l0.4,1.6c0.1,0.3,0.4,0.5,0.7,0.4c0,0,0,0,0,0
	l1.6-0.4c0.3-0.1,0.7,0,1,0.1l1.6,0.9c0.2,0.1,0.2,0.2,0.2,0.4c0,0.1-0.1,0.2-0.2,0.2l-1.6,0.9c-0.3,0.2-0.7,0.2-1,0.1l-1.6-0.4
	c-0.3-0.1-0.6,0.1-0.7,0.4c0,0,0,0,0,0l-0.4,1.6c-0.1,0.3,0.1,0.6,0.4,0.7c0,0,0,0,0,0L4,14.4c0.3,0.1,0.5,0.4,0.4,0.7c0,0,0,0,0,0
	l-0.2,0.8c-0.1,0.3,0.1,0.6,0.4,0.7c0,0,0,0,0,0L6.2,17c0.3,0.1,0.6-0.1,0.7-0.4c0,0,0,0,0,0L7.3,15c0.1-0.3,0.3-0.6,0.6-0.8
	l1.6-0.9c0.3-0.2,0.5,0,0.5,0.3v1.9c0,0.4-0.2,0.7-0.4,0.9l-1.2,1.2c-0.2,0.2-0.2,0.6,0,0.8l1.2,1.2c0.2,0.2,0.6,0.2,0.8,0l0.6-0.6
	c0.2-0.2,0.6-0.2,0.8,0l0.6,0.6c0.2,0.2,0.6,0.2,0.8,0l1.2-1.2c0.2-0.2,0.2-0.6,0-0.8l-1.2-1.2c-0.2-0.3-0.4-0.6-0.4-0.9v-1.9
	c0-0.3,0.2-0.4,0.5-0.3l1.6,0.9c0.3,0.2,0.5,0.5,0.6,0.8l0.4,1.6c0.1,0.3,0.4,0.5,0.7,0.4c0,0,0,0,0,0l1.6-0.4
	c0.3-0.1,0.5-0.4,0.4-0.7c0,0,0,0,0,0L18.4,15c-0.1-0.3,0.1-0.6,0.4-0.7c0,0,0,0,0,0l0.8-0.2c0.3-0.1,0.5-0.4,0.4-0.7c0,0,0,0,0,0
	L19.6,11.9z"/>
</svg>
