<?xml version="1.0" encoding="utf-8"?>
<!-- Generator: Adobe Illustrator 24.0.1, SVG Export Plug-In . SVG Version: 6.00 Build 0)  -->
<svg version="1.1" id="Layer_1" xmlns="http://www.w3.org/2000/svg" xmlns:xlink="http://www.w3.org/1999/xlink" x="0px" y="0px"
	 viewBox="0 0 22.8 20.5" style="enable-background:new 0 0 22.8 20.5;" xml:space="preserve">
<style type="text/css">
	.st0{fill:#818181;}
</style>
<path class="st0" d="M12.6,10.2h8.2v7c0,1.3-1.1,2.3-2.3,2.3H4.4c-1.3,0-2.3-1.1-2.3-2.3v-7h8.2v1.2c0,0.6,0.5,1.2,1.2,1.2
	c0.6,0,1.2-0.5,1.2-1.2V10.2z M20.8,7.9v1.2H2V7.9c0-1.3,1.1-2.3,2.3-2.3h1.2V5c0-0.3,0.3-0.6,0.6-0.6h0.6V3.2
	c0-1.3,1.1-2.3,2.3-2.3h4.7c1.3,0,2.3,1.1,2.3,2.3v1.2h0.6c0.3,0,0.6,0.3,0.6,0.6v0.6h1.2C19.7,5.6,20.8,6.6,20.8,7.9z M9.1,5v0.6
	h4.7V5c0-0.3,0.3-0.6,0.6-0.6h0.6V3.2c0-0.6-0.5-1.2-1.2-1.2H9.1C8.4,2,7.9,2.6,7.9,3.2v1.2h0.6C8.8,4.4,9.1,4.6,9.1,5z"/>
</svg>
